<svg enable-background="new 0 0 202 59.5" viewBox="0 0 202 59.5" xmlns="http://www.w3.org/2000/svg"><path d="m59.9 24c-5.5-13-20.5-19.2-33.5-13.8s-19.2 20.5-13.8 33.5c3.6 8.6 11.3 14.2 19.9 15.5-.6-2.1-1.2-4.4-1.7-6.9 1.5 1 3.1 1.8 4.8 2.6s.1 2.2.3 4.6c1.8 0 3.6-.1 5.3-.5 0-.2 0-.4 0-.8.3-1.9 1.1-5.2 1.2-7.4 1.1-1.1 2.1-2.3 2.9-3.7 0 .1 0 .3-.1.4-.6 4.3-1.7 8.8-2.4 10.1-.2.4-.5.9-.8 1.2 1.4-.3 2.7-.8 4.1-1.3 13.1-5.5 19.2-20.5 13.8-33.5zm-1.5 3.8c-.4.4-1.3.7-1.5-.6s-.2-2.2-.2-2.2-1.9-3.4-2.7-3.5c-.7 0-5.8 3.5-7.2 5-1.2 1.3-1.4 1.2-1.4 3.5 0 1.7.2 8.2.1 13.1s-2.2.6-8.1 2.2c-6 1.6-7.8 1.8-7.8 1.8l-1-5.8-2.7-13.3s-3.8-1.4-5.2-1.8-2.3-.7-4 .6c-1.8 1.3-1.7 3.9-1.7 3.9s.4 1 .5 1.4c0 .5-1.2.4-2 .4s-.9-1.4-.3-3.1 1.9-3.7 1.9-3.7 1.2-2.3 2.1-2.9c0 0 .1-.3 1.3-.2 1.1.1 7.3.4 7.3.4l.1-2.3c6.7-.9 13.5-1.4 20.2-1.3 0 .6 0 1.2-.1 1.8 0 0 4.4-2 8.1-2 0 0 .4 0 .8.4.3.4 2.4 3 2.7 3.4.2.4 1.2 1.7 1.8 3-.1 0-.6 1.3-1 1.8z" fill="#fdc305"/><path d="m56.5 21.7c.5.6.9 1.1 1 1.3.2.4 1.2 1.7 1.8 3 0 0-.4 1.3-.9 1.8s-1.3.7-1.5-.6-.2-2.2-.2-2.2-1.9-3.4-2.7-3.5c-.7 0-5.8 3.5-7.2 5-1.2 1.3-1.4 1.2-1.4 3.5 0 1.5.2 6.6.1 11.2 1.8.2 4.5.7 5.3 1.9 0 0-.3-7.2 7.8-3.4 0 0 .3-9.8 11.5-7.3.1 0-5.6-7-13.6-10.7z" fill="#f06351"/><path d="m45.9 19.4c.1-8.5-1.4-16.5-1.4-16.5s-.1-1.3-.9-.2c-.7 1.1-1.2 4-1.2 4-7.4-.6-12.8.2-12.8.2-.8-2.7-2.2-4-2.9-3.7-.6.3-.7 3.3-.7 3.3l-.3 14.2c6.7-.9 13.5-1.4 20.2-1.3z" fill="#f06351"/><path d="m45.4 47.1c.1-1.1.2-2.5.2-4.1 0 0-2.2.6-8.1 2.2-6 1.6-7.8 1.8-7.8 1.8l1.1 5c0 .1 0 .2.1.3 1.5 1 3.1 1.8 4.8 2.6 4.4-2.2 6.9-4.1 6.9-4.1v.1c1-1.1 2-2.4 2.8-3.8z" fill="#e55645"/><path d="m32 16.2c0-.1 1 .7 1.4.9s.6.4.6.6-.3.3-.6.3-.9-.1-1-.3h.9.3c.1.1-1.3-1-1.6-1.5z"/><path d="m39.5 16.3s-1.1 1.3-1.1 1.3c0 .1-.2.3.2.3s1.1-.2 1.2-.3.1-.2-.1-.2-.7 0-1 .1l.8-1.2c.1 0 .1-.1 0 0z"/><path d="m36.4 22.4s.8-.4 1.1-1c.3-.7 0-.9-.4-1s-1.3 0-1.7.3c-.4.4-.3.7-.1 1s.8.7 1.1.7z"/><path d="m35.9 23.7s-.2.4-.5.6c-.2.2-.6.4-1 .4-.6 0-1.1-.2-1.5-.4-.2-.1-.4-.3-.5-.4-.2-.2-.4-.3-.4-.3s.8 4.1 2.6 4.8 2.2-.8 2.2-1.1 0-2.1-.8-3.2c.1-.5 0-.3-.1-.4z" fill="#f06351"/><path d="m34.3 24.8c-1.3 0-2.3-1.4-2.4-1.4 0-.1 0-.2 0-.2h.2s1 1.3 2.1 1.3c.6 0 1.1-.3 1.6-1l.1-.2.1.2s.4.8 1 .8c.5 0 1.1-.4 1.6-1.3 0-.1.1-.1.2 0 .1 0 .1.1 0 .2-.6 1-1.3 1.5-1.9 1.4-.6 0-.9-.5-1.1-.8-.3.7-.9 1-1.5 1z"/><ellipse cx="36.3" cy="34.5" fill="#fdc305" rx="3.8" ry="3.8" transform="matrix(.9227 -.3855 .3855 .9227 -10.5155 16.6462)"/><path d="m41.2 31.5-3.1 1.3 1.1-5.6-7.5 9.8 3.1-1.3-1.1 5.6zm-7.4 3.8 4.1-5.4-.8 4 2-.8-4.1 5.4.8-4z" fill="#111"/><ellipse cx="32.4" cy="32.7" fill="#111" rx="1.1" ry="1.1" transform="matrix(.9227 -.3855 .3855 .9227 -10.1149 15.0347)"/><ellipse cx="39" cy="37.1" fill="#111" rx=".8" ry=".8" transform="matrix(.9227 -.3855 .3855 .9227 -11.304 17.8881)"/><ellipse cx="39.9" cy="35.4" fill="#111" rx=".3" ry=".3" transform="matrix(.9227 -.3855 .3855 .9227 -10.5603 18.1253)"/><path d="m45.9 21.2s-2.6 2.3-5.1 5.2-5.3 4.9-5.3 4.9c-.2-.5-1.6-1.5-1.6-1.5s-3.1-2.1-5.2-3.8c-1.2-1-2.4-2.2-3.1-3-.3 0-1.1-.1-2-.1 4.7 7 12 8.8 12 8.8.9-.1 3.3-1.9 5.1-3.3s4.8-4.5 6-5.9c.6-.7.9-1.4 1.1-2-1.2.3-1.9.7-1.9.7z" fill="#f06351"/><g fill="#fdc305"><path d="m65.2 3.5-8.4 9.4-1.3-2 8.2-10.9z"/><path d="m62.6 17.3 5.6-4.2-.8-3.7-5.4 4.8z"/><path d="m59.9 49.4 6.2 3.2 3-2.4-6.7-2.7z"/><path d="m2 6 3-3.4 9.3 9-1.2 2.3z"/><path d="m7.4 16.3-4.7-3.1-2.4 3.8 5.1 2.4z"/><path d="m13.9 52.6-4.5 3.3 2.8 3.6 4-4z"/></g><path d="m25.9 28s-3.8-1.4-5.2-1.8-2.3-.7-4 .6c-1.8 1.3-1.7 3.9-1.7 3.9s.4 1 .5 1.4c0 .5-1.2.4-2 .4s-.9-1.4-.3-3.1 1.9-3.7 1.9-3.7c-5.4 2.8-15 9.4-15 9.4s2.9-.3 8.2.2 5 4.7 5 4.7 3.5-1 5.6-1.1 2.3 2.1 2.3 2.1l.5 3.9s.5-.6 2.7-2.4c1.9-1.5 3.9-1.4 4.4-1.3z" fill="#f06351"/><path d="m85.7 42c-.9-1.2-1.4-2.9-1.4-5.2v-7.5c0-2.3.5-4.1 1.4-5.2.9-1.2 2.5-1.8 4.8-1.8 2.1 0 3.7.5 4.5 1.6.9 1 1.3 2.5 1.3 4.5v1.8h-4.1v-1.9c0-.6 0-1.1-.1-1.5s-.2-.7-.5-.9c-.2-.2-.6-.4-1.2-.4-.8 0-1.3.3-1.5.8s-.3 1.2-.3 2.2v9.5c0 1 .1 1.7.4 2.2s.7.7 1.4.7 1.2-.2 1.4-.7.3-1.2.3-2.2v-2h4.1v1.7c0 2-.4 3.6-1.3 4.6-.9 1.1-2.4 1.6-4.6 1.6-2.1-.1-3.7-.7-4.6-1.9z" fill="#111"/><path d="m101.9 22.6h4.7l4 21h-3.9l-.8-4.6h-3.3l-.8 4.6h-4zm3.7 13.7-1.3-8.4-1.2 8.4z" fill="#111"/><path d="m113.7 25.7h-3.2v-3.2h10.7v3.2h-3.2v17.8h-4.3z" fill="#111"/><g fill="#444"><path d="m129.6 22.6h8.1v2.2h-5.2v6.9h4.2v2.1h-4.2v7.7h5.3v2.1h-8.2z"/><path d="m140.1 22.6h2l6 13.9v-13.9h2.4v21h-1.9l-6-14.3v14.3h-2.5z"/><path d="m153.8 22.6h8.1v2.2h-5.2v6.9h4.2v2.1h-4.2v7.7h5.3v2.1h-8.2z"/><path d="m164.4 22.6h4.2c2.1 0 3.7.4 4.7 1.3s1.5 2.3 1.5 4.3c0 2.7-.9 4.3-2.6 4.9l3 10.5h-2.8l-2.7-9.8h-2.3v9.8h-2.9v-21zm4 9c1.3 0 2.2-.2 2.7-.8.5-.5.8-1.4.8-2.7 0-.9-.1-1.5-.3-2s-.5-.9-1-1.1-1.2-.3-2-.3h-1.3v6.9z"/><path d="m178.7 42c-.8-1.2-1.3-3-1.3-5.3v-7c0-1.6.2-3 .5-4s.9-1.8 1.7-2.4 1.9-.8 3.4-.8c1.9 0 3.3.5 4.2 1.5s1.3 2.5 1.3 4.6v.8h-2.7v-.6c0-1-.1-1.8-.2-2.3s-.4-1-.8-1.2c-.4-.3-1-.4-1.7-.4-.8 0-1.4.2-1.8.6s-.7.9-.8 1.5-.2 1.4-.2 2.5v7.5c0 1.6.2 2.8.6 3.5s1.1 1 2.2 1 1.8-.4 2.2-1.1c.4-.8.6-2 .6-3.6v-1.4h-2.7v-2.1h5.3v10.4h-1.8l-.3-2.4c-.7 1.8-1.9 2.7-3.7 2.7-1.8-.2-3.2-.8-4-2z"/><path d="m194.7 36.1-4.5-13.6h2.7l3.2 10.1 3.2-10.1h2.7l-4.5 13.6v7.4h-2.8z"/></g></svg>