<svg enable-background="new 0 0 127.8 23.4" viewBox="0 0 127.8 23.4" xmlns="http://www.w3.org/2000/svg"><g fill="#111"><path d="m1.6 21.5c-1-1.3-1.6-3.2-1.6-5.6v-8.3c0-2.5.5-4.4 1.5-5.7 1.1-1.3 2.8-1.9 5.3-1.9 2.4 0 4.1.6 5.1 1.7s1.5 2.8 1.5 4.9v2h-4.9v-2.3c0-.9-.1-1.6-.3-2s-.6-.8-1.4-.8c-.7 0-1.2.2-1.4.7s-.3 1.3-.3 2.2v10.7c0 .9.1 1.6.4 2.1.2.5.7.7 1.4.7s1.1-.2 1.3-.7.3-1.2.3-2.1v-2.4h4.9v2c0 2.1-.5 3.8-1.5 5s-2.7 1.8-5.1 1.8c-2.4-.1-4.2-.7-5.2-2z"/><path d="m19.3.3h5.7l4.2 22.8h-4.6l-.8-4.8h-3.3l-.8 4.8h-4.7zm4.1 15-1.2-8.9-1.2 8.9z"/><path d="m32.7 4.1h-3.4v-3.8h11.9v3.7h-3.4v19.1h-5.1z"/><path d="m50.3.3h8.8v2.4h-5.7v7.5h4.6v2.3h-4.6v8.4h5.7v2.3h-8.9v-22.9z"/><path d="m61.7.3h2.2l6.5 15.1v-15.1h2.6v22.8h-2l-6.6-15.6v15.6h-2.7z"/><path d="m76 .3h8.8v2.4h-5.7v7.5h4.6v2.3h-4.6v8.4h5.7v2.3h-8.8z"/><path d="m87.4.3h4.6c2.3 0 4 .5 5.1 1.4s1.6 2.5 1.6 4.6c0 2.9-.9 4.7-2.8 5.3l3.2 11.4h-3.1l-3-10.7h-2.5v10.7h-3.2v-22.7zm4.4 9.8c1.4 0 2.3-.3 2.9-.8s.9-1.5.9-3c0-.9-.1-1.7-.3-2.2s-.6-.9-1.1-1.2-1.3-.4-2.2-.4h-1.4v7.5h1.2z"/><path d="m102.7 21.4c-.9-1.3-1.4-3.2-1.4-5.8v-7.6c0-1.8.2-3.2.5-4.3.4-1.1 1-2 1.9-2.6s2.1-.9 3.7-.9c2.1 0 3.6.5 4.5 1.6s1.4 2.7 1.4 5v.8h-3v-.7c0-1.1-.1-1.9-.2-2.5s-.4-1-.8-1.3-1-.5-1.9-.5-1.5.2-2 .6-.7.9-.8 1.6-.2 1.6-.2 2.7v8.5c0 1.7.2 3 .6 3.8s1.2 1.1 2.4 1.1 2-.4 2.4-1.2.7-2.1.7-4v-1.6h-2.9v-2.3h5.8v11.3h-2l-.3-2.6c-.7 1.9-2.1 2.9-4.1 2.9-1.9 0-3.4-.7-4.3-2z"/><path d="m119.8 15.1-4.9-14.7h3l3.5 11 3.4-11h3l-4.9 14.7v8h-3v-8z"/></g></svg>